<svg width="392" height="144" viewBox="0 0 392 144" fill="none" xmlns="http://www.w3.org/2000/svg">
<mask id="path-1-outside-1_115_2800" maskUnits="userSpaceOnUse" x="-0.5" y="-0.9375" width="394" height="146" fill="black">
<rect fill="white" x="-0.5" y="-0.9375" width="394" height="146"/>
<path d="M0.611719 107.662V93.6625L72.2117 2.06249H93.8117L22.8117 93.6625L12.6117 90.4625H124.412V107.662H0.611719ZM78.4117 142.062V107.662L79.0117 90.4625V60.0625H97.8117V142.062H78.4117ZM193.601 143.663C182.667 143.663 172.867 140.862 164.201 135.262C155.667 129.662 148.867 121.529 143.801 110.862C138.867 100.196 136.401 87.2625 136.401 72.0625C136.401 56.8625 138.867 43.9292 143.801 33.2625C148.867 22.5958 155.667 14.4625 164.201 8.8625C172.867 3.2625 182.667 0.462499 193.601 0.462499C204.401 0.462499 214.134 3.2625 222.801 8.8625C231.467 14.4625 238.267 22.5958 243.201 33.2625C248.134 43.9292 250.601 56.8625 250.601 72.0625C250.601 87.2625 248.134 100.196 243.201 110.862C238.267 121.529 231.467 129.662 222.801 135.262C214.134 140.862 204.401 143.663 193.601 143.663ZM193.601 125.862C200.934 125.862 207.334 123.862 212.801 119.862C218.401 115.862 222.734 109.862 225.801 101.862C229.001 93.8625 230.601 83.9292 230.601 72.0625C230.601 60.1958 229.001 50.2625 225.801 42.2625C222.734 34.2625 218.401 28.2625 212.801 24.2625C207.334 20.2625 200.934 18.2625 193.601 18.2625C186.267 18.2625 179.801 20.2625 174.201 24.2625C168.601 28.2625 164.201 34.2625 161.001 42.2625C157.934 50.2625 156.401 60.1958 156.401 72.0625C156.401 83.9292 157.934 93.8625 161.001 101.862C164.201 109.862 168.601 115.862 174.201 119.862C179.801 123.862 186.267 125.862 193.601 125.862ZM267.799 107.662V93.6625L339.399 2.06249H360.999L289.999 93.6625L279.799 90.4625H391.599V107.662H267.799ZM345.599 142.062V107.662L346.199 90.4625V60.0625H364.999V142.062H345.599Z"/>
</mask>
<path d="M0.611719 107.662H-0.388281V108.662H0.611719V107.662ZM0.611719 93.6625L-0.176149 93.0467L-0.388281 93.318V93.6625H0.611719ZM72.2117 2.06249V1.06249H71.7241L71.4239 1.44665L72.2117 2.06249ZM93.8117 2.06249L94.6021 2.67512L95.8521 1.06249H93.8117V2.06249ZM22.8117 93.6625L22.5124 94.6166L23.176 94.8248L23.6021 94.2751L22.8117 93.6625ZM12.6117 90.4625V89.4625L12.3124 91.4166L12.6117 90.4625ZM124.412 90.4625H125.412V89.4625H124.412V90.4625ZM124.412 107.662V108.662H125.412V107.662H124.412ZM78.4117 142.062H77.4117V143.062H78.4117V142.062ZM78.4117 107.662L77.4123 107.628L77.4117 107.645V107.662H78.4117ZM79.0117 90.4625L80.0111 90.4974L80.0117 90.4799V90.4625H79.0117ZM79.0117 60.0625V59.0625H78.0117V60.0625H79.0117ZM97.8117 60.0625H98.8117V59.0625H97.8117V60.0625ZM97.8117 142.062V143.062H98.8117V142.062H97.8117ZM1.61172 107.662V93.6625H-0.388281V107.662H1.61172ZM1.39959 94.2783L72.9996 2.67833L71.4239 1.44665L-0.176149 93.0467L1.39959 94.2783ZM72.2117 3.06249H93.8117V1.06249H72.2117V3.06249ZM93.0213 1.44986L22.0213 93.0499L23.6021 94.2751L94.6021 2.67512L93.0213 1.44986ZM23.1111 92.7084L12.9111 89.5084L12.3124 91.4166L22.5124 94.6166L23.1111 92.7084ZM12.6117 91.4625H124.412V89.4625H12.6117V91.4625ZM123.412 90.4625V107.662H125.412V90.4625H123.412ZM124.412 106.662H0.611719V108.662H124.412V106.662ZM79.4117 142.062V107.662H77.4117V142.062H79.4117ZM79.4111 107.697L80.0111 90.4974L78.0123 90.4276L77.4123 107.628L79.4111 107.697ZM80.0117 90.4625V60.0625H78.0117V90.4625H80.0117ZM79.0117 61.0625H97.8117V59.0625H79.0117V61.0625ZM96.8117 60.0625V142.062H98.8117V60.0625H96.8117ZM97.8117 141.062H78.4117V143.062H97.8117V141.062ZM164.201 135.262L163.652 136.099L163.658 136.102L164.201 135.262ZM143.801 110.862L142.893 111.282L142.898 111.292L143.801 110.862ZM143.801 33.2625L142.897 32.8334L142.893 32.8427L143.801 33.2625ZM164.201 8.8625L163.658 8.02256L163.652 8.02645L164.201 8.8625ZM222.801 8.8625L223.344 8.02258L222.801 8.8625ZM243.201 33.2625L244.108 32.8427L244.108 32.8427L243.201 33.2625ZM243.201 110.862L244.108 111.282L244.108 111.282L243.201 110.862ZM222.801 135.262L223.344 136.102L222.801 135.262ZM212.801 119.862L212.22 119.049L212.21 119.055L212.801 119.862ZM225.801 101.862L224.872 101.491L224.87 101.498L224.867 101.505L225.801 101.862ZM225.801 42.2625L224.867 42.6204L224.87 42.6272L224.872 42.6339L225.801 42.2625ZM212.801 24.2625L212.21 25.0696L212.22 25.0762L212.801 24.2625ZM174.201 24.2625L173.62 23.4488L173.62 23.4488L174.201 24.2625ZM161.001 42.2625L160.072 41.8911L160.07 41.8978L160.067 41.9046L161.001 42.2625ZM161.001 101.862L160.067 102.22L160.07 102.227L160.072 102.234L161.001 101.862ZM174.201 119.862L174.782 119.049L174.782 119.049L174.201 119.862ZM193.601 142.663C182.848 142.663 173.239 139.912 164.743 134.423L163.658 136.102C172.496 141.813 182.487 144.663 193.601 144.663V142.663ZM164.749 134.426C156.392 128.942 149.705 120.961 144.704 110.433L142.898 111.292C148.03 122.097 154.943 130.383 163.652 136.099L164.749 134.426ZM144.708 110.443C139.851 99.9403 137.401 87.1584 137.401 72.0625H135.401C135.401 87.3666 137.884 100.451 142.893 111.282L144.708 110.443ZM137.401 72.0625C137.401 56.9666 139.851 44.1847 144.708 33.6823L142.893 32.8427C137.884 43.6736 135.401 56.7584 135.401 72.0625H137.401ZM144.704 33.6916C149.705 23.1641 156.392 15.183 164.749 9.69855L163.652 8.02645C154.943 13.742 148.03 22.0276 142.898 32.8334L144.704 33.6916ZM164.743 9.70241C173.239 4.21326 182.848 1.4625 193.601 1.4625V-0.537501C182.487 -0.537501 172.496 2.31174 163.658 8.02258L164.743 9.70241ZM193.601 1.4625C204.218 1.4625 213.761 4.21193 222.258 9.70241L223.344 8.02258C214.507 2.31307 204.584 -0.537501 193.601 -0.537501V1.4625ZM222.258 9.70241C230.745 15.186 237.428 23.1629 242.293 33.6823L244.108 32.8427C239.107 22.0288 232.19 13.739 223.344 8.02258L222.258 9.70241ZM242.293 33.6823C247.151 44.1847 249.601 56.9666 249.601 72.0625H251.601C251.601 56.7584 249.118 43.6736 244.108 32.8427L242.293 33.6823ZM249.601 72.0625C249.601 87.1584 247.151 99.9403 242.293 110.443L244.108 111.282C249.118 100.451 251.601 87.3666 251.601 72.0625H249.601ZM242.293 110.443C237.428 120.962 230.745 128.939 222.258 134.423L223.344 136.102C232.19 130.386 239.107 122.096 244.108 111.282L242.293 110.443ZM222.258 134.423C213.761 139.913 204.218 142.663 193.601 142.663V144.663C204.584 144.663 214.507 141.812 223.344 136.102L222.258 134.423ZM193.601 126.862C201.128 126.862 207.739 124.805 213.391 120.67L212.21 119.055C206.929 122.92 200.74 124.862 193.601 124.862V126.862ZM213.382 120.676C219.177 116.537 223.615 110.359 226.735 102.22L224.867 101.505C221.853 109.366 217.625 115.188 212.22 119.049L213.382 120.676ZM226.729 102.234C229.991 94.0803 231.601 84.0116 231.601 72.0625H229.601C229.601 83.8467 228.011 93.6447 224.872 101.491L226.729 102.234ZM231.601 72.0625C231.601 60.1134 229.991 50.0447 226.729 41.8911L224.872 42.6339C228.011 50.4803 229.601 60.2783 229.601 72.0625H231.601ZM226.735 41.9046C223.615 33.7663 219.177 27.5879 213.382 23.4488L212.22 25.0762C217.625 28.9371 221.853 34.7587 224.867 42.6204L226.735 41.9046ZM213.391 23.4555C207.739 19.3196 201.128 17.2625 193.601 17.2625V19.2625C200.74 19.2625 206.929 21.2054 212.21 25.0695L213.391 23.4555ZM193.601 17.2625C186.074 17.2625 179.401 19.3195 173.62 23.4488L174.782 25.0762C180.201 21.2055 186.461 19.2625 193.601 19.2625V17.2625ZM173.62 23.4488C167.829 27.5849 163.326 33.7581 160.072 41.8911L161.929 42.6339C165.076 34.7669 169.373 28.94 174.782 25.0762L173.62 23.4488ZM160.067 41.9046C156.943 50.0536 155.401 60.1172 155.401 72.0625H157.401C157.401 60.2744 158.925 50.4714 161.935 42.6204L160.067 41.9046ZM155.401 72.0625C155.401 84.0078 156.943 94.0714 160.067 102.22L161.935 101.505C158.925 93.6536 157.401 83.8506 157.401 72.0625H155.401ZM160.072 102.234C163.326 110.367 167.829 116.54 173.62 120.676L174.782 119.049C169.373 115.185 165.076 109.358 161.929 101.491L160.072 102.234ZM173.62 120.676C179.401 124.806 186.074 126.862 193.601 126.862V124.862C186.461 124.862 180.201 122.919 174.782 119.049L173.62 120.676ZM267.799 107.662H266.799V108.662H267.799V107.662ZM267.799 93.6625L267.011 93.0467L266.799 93.318V93.6625H267.799ZM339.399 2.06249V1.06249H338.912L338.611 1.44665L339.399 2.06249ZM360.999 2.06249L361.79 2.67512L363.04 1.06249H360.999V2.06249ZM289.999 93.6625L289.7 94.6166L290.364 94.8248L290.79 94.2751L289.999 93.6625ZM279.799 90.4625V89.4625L279.5 91.4166L279.799 90.4625ZM391.599 90.4625H392.599V89.4625H391.599V90.4625ZM391.599 107.662V108.662H392.599V107.662H391.599ZM345.599 142.062H344.599V143.062H345.599V142.062ZM345.599 107.662L344.6 107.628L344.599 107.645V107.662H345.599ZM346.199 90.4625L347.199 90.4974L347.199 90.4799V90.4625H346.199ZM346.199 60.0625V59.0625H345.199V60.0625H346.199ZM364.999 60.0625H365.999V59.0625H364.999V60.0625ZM364.999 142.062V143.062H365.999V142.062H364.999ZM268.799 107.662V93.6625H266.799V107.662H268.799ZM268.587 94.2783L340.187 2.67833L338.611 1.44665L267.011 93.0467L268.587 94.2783ZM339.399 3.06249H360.999V1.06249H339.399V3.06249ZM360.209 1.44986L289.209 93.0499L290.79 94.2751L361.79 2.67512L360.209 1.44986ZM290.299 92.7084L280.099 89.5084L279.5 91.4166L289.7 94.6166L290.299 92.7084ZM279.799 91.4625H391.599V89.4625H279.799V91.4625ZM390.599 90.4625V107.662H392.599V90.4625H390.599ZM391.599 106.662H267.799V108.662H391.599V106.662ZM346.599 142.062V107.662H344.599V142.062H346.599ZM346.599 107.697L347.199 90.4974L345.2 90.4276L344.6 107.628L346.599 107.697ZM347.199 90.4625V60.0625H345.199V90.4625H347.199ZM346.199 61.0625H364.999V59.0625H346.199V61.0625ZM363.999 60.0625V142.062H365.999V60.0625H363.999ZM364.999 141.062H345.599V143.062H364.999V141.062Z" fill="#4A4E61" mask="url(#path-1-outside-1_115_2800)"/>
</svg>
