<svg width="25" height="25" viewBox="0 0 25 25" fill="none" xmlns="http://www.w3.org/2000/svg">
<path d="M20.8335 9.37467V7.29134H4.16683V9.37467H20.8335ZM20.8335 12.4997H4.16683V17.708H20.8335V12.4997ZM4.16683 5.20801H20.8335C21.386 5.20801 21.9159 5.4275 22.3066 5.8182C22.6973 6.2089 22.9168 6.73881 22.9168 7.29134V17.708C22.9168 18.2605 22.6973 18.7904 22.3066 19.1811C21.9159 19.5718 21.386 19.7913 20.8335 19.7913H4.16683C3.6143 19.7913 3.08439 19.5718 2.69369 19.1811C2.30299 18.7904 2.0835 18.2605 2.0835 17.708V7.29134C2.0835 6.73881 2.30299 6.2089 2.69369 5.8182C3.08439 5.4275 3.6143 5.20801 4.16683 5.20801V5.20801ZM6.25016 14.583H7.29183C7.5681 14.583 7.83305 14.6928 8.0284 14.8881C8.22375 15.0835 8.3335 15.3484 8.3335 15.6247C8.3335 15.9009 8.22375 16.1659 8.0284 16.3612C7.83305 16.5566 7.5681 16.6663 7.29183 16.6663H6.25016C5.9739 16.6663 5.70894 16.5566 5.51359 16.3612C5.31824 16.1659 5.2085 15.9009 5.2085 15.6247C5.2085 15.3484 5.31824 15.0835 5.51359 14.8881C5.70894 14.6928 5.9739 14.583 6.25016 14.583ZM11.4585 14.583H16.6668C16.9431 14.583 17.208 14.6928 17.4034 14.8881C17.5988 15.0835 17.7085 15.3484 17.7085 15.6247C17.7085 15.9009 17.5988 16.1659 17.4034 16.3612C17.208 16.5566 16.9431 16.6663 16.6668 16.6663H11.4585C11.1822 16.6663 10.9173 16.5566 10.7219 16.3612C10.5266 16.1659 10.4168 15.9009 10.4168 15.6247C10.4168 15.3484 10.5266 15.0835 10.7219 14.8881C10.9173 14.6928 11.1822 14.583 11.4585 14.583Z" fill="#494949"/>
</svg>
