<svg aria-hidden="true" style="position: absolute; width: 0; height: 0; overflow: hidden;" version="1.1" xmlns="http://www.w3.org/2000/svg" xmlns:xlink="http://www.w3.org/1999/xlink">
<defs>
<symbol id="icon-thin_long_right" viewBox="0 0 32 32">
<path fill="#9d9d9d" style="fill: var(--color1, #9d9d9d)" d="M24.533 22.4l6.4-6.4-6.4-6.4-1.508 1.508 3.825 3.825h-25.783v2.133h25.783l-3.825 3.825 1.508 1.508z"></path>
</symbol>
<symbol id="icon-thin_long_left" viewBox="0 0 32 32">
<path fill="#9d9d9d" style="fill: var(--color1, #9d9d9d)" d="M7.467 9.6l-6.4 6.4 6.4 6.4 1.508-1.508-3.825-3.825h25.783v-2.133h-25.783l3.825-3.825-1.508-1.508z"></path>
</symbol>
<symbol id="icon-credit-card" viewBox="0 0 32 32">
<path fill="#494949" style="fill: var(--color2, #494949)" d="M26.667 12.001v-2.667h-21.333v2.667h21.333zM26.667 16.001h-21.333v6.667h21.333v-6.667zM5.333 6.668h21.333c0.707 0 1.385 0.281 1.886 0.781s0.781 1.178 0.781 1.886v13.333c0 0.707-0.281 1.385-0.781 1.886s-1.178 0.781-1.886 0.781h-21.333c-0.707 0-1.386-0.281-1.886-0.781s-0.781-1.178-0.781-1.886v-13.333c0-0.707 0.281-1.386 0.781-1.886s1.178-0.781 1.886-0.781v0zM8 18.668h1.333c0.354 0 0.693 0.14 0.943 0.391s0.39 0.589 0.39 0.943c0 0.354-0.14 0.693-0.39 0.943s-0.589 0.391-0.943 0.391h-1.333c-0.354 0-0.693-0.14-0.943-0.391s-0.391-0.589-0.391-0.943c0-0.354 0.14-0.693 0.391-0.943s0.589-0.391 0.943-0.391zM14.667 18.668h6.667c0.354 0 0.693 0.14 0.943 0.391s0.391 0.589 0.391 0.943c0 0.354-0.141 0.693-0.391 0.943s-0.589 0.391-0.943 0.391h-6.667c-0.354 0-0.693-0.14-0.943-0.391s-0.391-0.589-0.391-0.943c0-0.354 0.14-0.693 0.391-0.943s0.589-0.391 0.943-0.391z"></path>
</symbol>
<symbol id="icon-home" viewBox="0 0 32 32">
<path fill="none" stroke="#494949" style="stroke: var(--color2, #494949)" stroke-linejoin="miter" stroke-linecap="butt" stroke-miterlimit="4" stroke-width="2" d="M11.001 29.008c1.254 0.152 2.845 0.152 5 0.152s3.746 0 5-0.152M11.001 29.008c-1.144-0.139-2.007-0.404-2.762-0.911-0.127-0.085-0.25-0.175-0.371-0.269-1.499-1.175-2.136-3.135-3.409-7.054s-1.91-5.878-1.388-7.71c0.042-0.147 0.089-0.292 0.142-0.436 0.655-1.789 2.321-3 5.655-5.422s5-3.633 6.904-3.703c0.153-0.006 0.306-0.006 0.458 0 1.904 0.070 3.57 1.281 6.904 3.703s5 3.633 5.655 5.422c0.053 0.143 0.1 0.289 0.142 0.436 0.522 1.832-0.115 3.791-1.388 7.71s-1.91 5.878-3.409 7.054c-0.12 0.094-0.244 0.184-0.371 0.269-0.754 0.507-1.618 0.772-2.762 0.911M11.001 29.008v-4.483c0-2.761 2.239-5 5-5s5 2.239 5 5v4.483"></path>
</symbol>
<symbol id="icon-close" viewBox="0 0 32 32">
<path d="M4.391 4.391c0.521-0.521 1.365-0.521 1.886 0l9.724 9.724 9.724-9.724c0.521-0.521 1.365-0.521 1.885 0s0.521 1.365 0 1.886l-9.724 9.724 9.724 9.724c0.521 0.521 0.521 1.365 0 1.885s-1.365 0.521-1.885 0l-9.724-9.724-9.724 9.724c-0.521 0.521-1.365 0.521-1.886 0s-0.521-1.365 0-1.885l9.724-9.724-9.724-9.724c-0.521-0.521-0.521-1.365 0-1.886z"></path>
</symbol>
<symbol id="icon-facebook" viewBox="0 0 32 32">
<path fill="#fff" style="fill: var(--color3, #fff); stroke: var(--color3, #fff)" stroke="#fff" stroke-linejoin="miter" stroke-linecap="butt" stroke-miterlimit="4" stroke-width="1.7778" d="M17.65 18.314v11.908h-5.47v-11.908h-4.544v-4.828h4.544v-1.757c0-6.522 2.725-9.951 8.489-9.951 1.767 0 2.209 0.284 3.177 0.515v4.776c-1.084-0.189-1.389-0.295-2.514-0.295-1.336 0-2.051 0.379-2.703 1.126s-0.978 2.041-0.978 3.892v1.704h6.196l-1.662 4.828h-4.534v-0.011z"></path>
</symbol>
<symbol id="icon-youtube" viewBox="0 0 32 32">
<path fill="#fff" style="fill: var(--color3, #fff); stroke: var(--color3, #fff)" stroke="#fff" stroke-linejoin="miter" stroke-linecap="butt" stroke-miterlimit="4" stroke-width="1.3913" d="M26.313 26.15h-19.644c-2.628 0-4.746-2.324-4.746-5.184v-9.275c0-2.871 2.128-5.184 4.746-5.184h19.644c2.628 0 4.746 2.324 4.746 5.184v9.275c0.011 2.871-2.118 5.184-4.746 5.184z"></path>
<path fill="#262b2f" style="fill: var(--color4, #262b2f); stroke: var(--color4, #262b2f)" stroke="#262b2f" stroke-linejoin="miter" stroke-linecap="butt" stroke-miterlimit="4" stroke-width="1.3913" d="M21.644 16.184l-8.264-4.765v9.53l8.264-4.765z"></path>
</symbol>
<symbol id="icon-whatsapp" viewBox="0 0 32 32">
<path fill="#fff" style="fill: var(--color3, #fff)" d="M1.263 30.46l2.141-7.822c-1.321-2.29-2.015-4.885-2.014-7.547 0.004-8.321 6.775-15.092 15.094-15.092 4.037 0.001 7.827 1.574 10.678 4.427 2.849 2.853 4.418 6.645 4.417 10.679-0.004 8.322-6.775 15.093-15.094 15.093-2.526-0.001-5.015-0.635-7.219-1.838l-8.002 2.099zM9.636 25.629c2.127 1.263 4.158 2.019 6.843 2.021 6.915 0 12.547-5.627 12.551-12.546 0.003-6.932-5.603-12.552-12.541-12.555-6.92 0-12.548 5.628-12.551 12.545-0.001 2.824 0.826 4.938 2.216 7.151l-1.268 4.63 4.749-1.245zM24.088 18.694c-0.094-0.157-0.345-0.251-0.724-0.44-0.377-0.189-2.231-1.102-2.578-1.227-0.345-0.126-0.597-0.189-0.849 0.189-0.251 0.377-0.975 1.227-1.194 1.479s-0.44 0.283-0.817 0.094c-0.377-0.189-1.593-0.586-3.033-1.872-1.121-1-1.878-2.235-2.098-2.613-0.22-0.377-0.023-0.581 0.165-0.769 0.17-0.169 0.377-0.44 0.566-0.661 0.192-0.218 0.254-0.376 0.381-0.628 0.126-0.251 0.063-0.472-0.032-0.661-0.095-0.188-0.849-2.045-1.163-2.8-0.307-0.735-0.618-0.636-0.849-0.647l-0.723-0.013c-0.251 0-0.66 0.094-1.005 0.472s-1.32 1.29-1.32 3.146c0 1.857 1.352 3.65 1.54 3.902 0.189 0.251 2.659 4.061 6.442 5.695 0.9 0.388 1.603 0.621 2.15 0.794 0.904 0.287 1.726 0.246 2.376 0.15 0.725-0.108 2.231-0.913 2.546-1.793 0.315-0.882 0.315-1.637 0.22-1.795z"></path>
</symbol>
<symbol id="icon-twitter" viewBox="0 0 32 32">
<path fill="#fff" style="fill: var(--color3, #fff)" d="M10.942 28.317c11.437 0 17.694-9.478 17.694-17.694 0-0.266-0.006-0.539-0.018-0.805 1.217-0.88 2.268-1.971 3.102-3.22-1.134 0.504-2.337 0.834-3.57 0.977 1.298-0.778 2.269-2 2.735-3.44-1.221 0.724-2.556 1.234-3.948 1.509-0.938-0.997-2.178-1.657-3.529-1.878s-2.736 0.009-3.943 0.654-2.168 1.671-2.733 2.917c-0.566 1.246-0.705 2.644-0.397 3.978-2.472-0.124-4.89-0.766-7.098-1.885s-4.156-2.689-5.718-4.609c-0.794 1.369-1.037 2.989-0.679 4.53s1.288 2.889 2.604 3.769c-0.987-0.031-1.953-0.297-2.818-0.776v0.077c-0.001 1.437 0.496 2.829 1.406 3.941s2.176 1.874 3.585 2.158c-0.915 0.25-1.875 0.287-2.806 0.107 0.397 1.235 1.171 2.316 2.212 3.091s2.298 1.205 3.596 1.232c-2.203 1.73-4.924 2.669-7.725 2.664-0.497-0.001-0.993-0.031-1.486-0.091 2.846 1.826 6.156 2.795 9.537 2.793z"></path>
</symbol>
<symbol id="icon-instagram" viewBox="0 0 32 32">
<path fill="#fff" style="fill: var(--color3, #fff)" d="M16 2.881c4.275 0 4.781 0.019 6.462 0.094 1.563 0.069 2.406 0.331 2.969 0.55 0.744 0.288 1.281 0.638 1.837 1.194 0.563 0.563 0.906 1.094 1.194 1.838 0.219 0.563 0.481 1.412 0.55 2.969 0.075 1.688 0.094 2.194 0.094 6.463 0 4.275-0.019 4.781-0.094 6.463-0.069 1.562-0.331 2.406-0.55 2.969-0.287 0.744-0.638 1.281-1.194 1.838-0.562 0.562-1.094 0.906-1.837 1.194-0.563 0.219-1.413 0.481-2.969 0.55-1.688 0.075-2.194 0.094-6.463 0.094-4.275 0-4.781-0.019-6.463-0.094-1.563-0.069-2.406-0.331-2.969-0.55-0.744-0.288-1.281-0.638-1.838-1.194-0.563-0.562-0.906-1.094-1.194-1.838-0.219-0.562-0.481-1.413-0.55-2.969-0.075-1.688-0.094-2.194-0.094-6.463 0-4.275 0.019-4.781 0.094-6.463 0.069-1.563 0.331-2.406 0.55-2.969 0.288-0.744 0.638-1.281 1.194-1.838 0.563-0.563 1.094-0.906 1.838-1.194 0.563-0.219 1.412-0.481 2.969-0.55 1.681-0.075 2.188-0.094 6.463-0.094zM16 0c-4.344 0-4.887 0.019-6.594 0.094-1.7 0.075-2.869 0.35-3.881 0.744-1.056 0.412-1.95 0.956-2.837 1.85-0.894 0.888-1.438 1.781-1.85 2.831-0.394 1.019-0.669 2.181-0.744 3.881-0.075 1.713-0.094 2.256-0.094 6.6s0.019 4.888 0.094 6.594c0.075 1.7 0.35 2.869 0.744 3.881 0.413 1.056 0.956 1.95 1.85 2.838 0.887 0.887 1.781 1.437 2.831 1.844 1.019 0.394 2.181 0.669 3.881 0.744 1.706 0.075 2.25 0.094 6.594 0.094s4.888-0.019 6.594-0.094c1.7-0.075 2.869-0.35 3.881-0.744 1.050-0.406 1.944-0.956 2.831-1.844s1.438-1.781 1.844-2.831c0.394-1.019 0.669-2.181 0.744-3.881 0.075-1.706 0.094-2.25 0.094-6.594s-0.019-4.887-0.094-6.594c-0.075-1.7-0.35-2.869-0.744-3.881-0.394-1.063-0.937-1.956-1.831-2.844-0.888-0.887-1.781-1.438-2.831-1.844-1.019-0.394-2.181-0.669-3.881-0.744-1.713-0.081-2.256-0.1-6.6-0.1z"></path>
<path fill="#fff" style="fill: var(--color3, #fff)" d="M15.998 7.779c-4.537 0-8.219 3.681-8.219 8.219s3.681 8.219 8.219 8.219c4.538 0 8.219-3.681 8.219-8.219s-3.681-8.219-8.219-8.219zM15.998 21.329c-2.944 0-5.331-2.387-5.331-5.331s2.387-5.331 5.331-5.331c2.944 0 5.331 2.387 5.331 5.331s-2.387 5.331-5.331 5.331z"></path>
<path fill="#fff" style="fill: var(--color3, #fff)" d="M26.462 7.455c0 1.063-0.863 1.919-1.919 1.919-1.063 0-1.919-0.863-1.919-1.919 0-1.063 0.863-1.919 1.919-1.919s1.919 0.862 1.919 1.919z"></path>
</symbol>
<symbol id="icon-arrow-up-contained" viewBox="0 0 32 32">
<path fill="#777779" style="fill: var(--color5, #777779)" d="M10.452 16.804c-0.339 0.283-0.385 0.787-0.102 1.127s0.787 0.385 1.127 0.102l-1.024-1.229zM16.267 12.999l0.512-0.615c-0.297-0.247-0.728-0.247-1.024 0l0.512 0.615zM21.058 18.033c0.339 0.283 0.844 0.237 1.127-0.102s0.237-0.844-0.102-1.127l-1.024 1.229zM11.476 18.033l5.303-4.419-1.024-1.229-5.303 4.419 1.024 1.229zM15.755 13.614l5.303 4.419 1.024-1.229-5.303-4.419-1.024 1.229zM27.2 16c0 6.186-5.014 11.2-11.2 11.2v1.6c7.069 0 12.8-5.731 12.8-12.8h-1.6zM16 27.2c-6.186 0-11.2-5.014-11.2-11.2h-1.6c0 7.069 5.731 12.8 12.8 12.8v-1.6zM4.8 16c0-6.186 5.014-11.2 11.2-11.2v-1.6c-7.069 0-12.8 5.731-12.8 12.8h1.6zM16 4.8c6.186 0 11.2 5.014 11.2 11.2h1.6c0-7.069-5.731-12.8-12.8-12.8v1.6z"></path>
</symbol>
<symbol id="icon-chevron_down" viewBox="0 0 32 32">
<path d="M4.688 11.286l11.313 11.313 11.313-11.313-1.885-1.887-9.428 9.429-9.428-9.429-1.885 1.887z"></path>
</symbol>
<symbol id="icon-arrow-right" viewBox="0 0 32 32">
<path d="M22.037 8.623c-0.392-0.389-1.025-0.386-1.414 0.006s-0.386 1.025 0.006 1.414l2.351 2.33c0.954 0.946 1.608 1.596 2.051 2.148 0.144 0.179 0.256 0.337 0.343 0.479h-20.041c-0.552 0-1 0.448-1 1s0.448 1 1 1h20.041c-0.087 0.142-0.199 0.3-0.343 0.479-0.443 0.551-1.097 1.202-2.051 2.148l-2.351 2.33c-0.392 0.389-0.395 1.022-0.006 1.414s1.022 0.395 1.414 0.006l2.393-2.372c0.901-0.893 1.638-1.623 2.16-2.274 0.543-0.676 0.937-1.363 1.042-2.187 0.023-0.181 0.035-0.362 0.035-0.544s-0.012-0.364-0.035-0.544c-0.105-0.824-0.498-1.511-1.042-2.187-0.522-0.65-1.259-1.381-2.16-2.274l-2.393-2.372z"></path>
</symbol>
<symbol id="icon-tag" viewBox="0 0 32 32">
<path d="M16.741 10.608c-0.368 0.638-0.15 1.453 0.488 1.821s1.453 0.15 1.821-0.488c0.368-0.638 0.15-1.453-0.488-1.821s-1.453-0.15-1.821 0.488z"></path>
<path d="M14.416 2.81c2.299-0.725 3.7-1.167 4.959-1.142 2.63 0.052 5.050 1.449 6.41 3.701 0.652 1.079 0.969 2.512 1.491 4.866l0.068 0.307c0.204 0.921 0.33 1.488 0.37 2.057 0.082 1.176-0.108 2.355-0.555 3.446-0.217 0.527-0.514 1.026-0.997 1.837l-3.423 5.741c-1.089 1.828-1.754 2.943-2.598 3.711-1.864 1.696-4.443 2.368-6.897 1.796-1.111-0.259-2.235-0.908-4.078-1.972l-0.349-0.201c-1.843-1.064-2.968-1.713-3.747-2.546-1.722-1.84-2.43-4.409-1.893-6.871 0.243-1.115 0.877-2.248 1.915-4.105l3.261-5.835c0.46-0.824 0.744-1.331 1.092-1.782 0.721-0.933 1.647-1.687 2.706-2.204 0.513-0.25 1.066-0.425 1.966-0.708l0.3-0.094zM15.009 9.608c-0.92 1.594-0.374 3.633 1.22 4.553s3.633 0.374 4.553-1.22c0.92-1.594 0.374-3.633-1.22-4.553s-3.633-0.374-4.553 1.22z"></path>
</symbol>
<symbol id="icon-shield-plus" viewBox="0 0 32 32">
<path d="M9.030 5.388c0-2.056 1.667-3.722 3.722-3.722h6.888c1.841 0 3.333 1.492 3.333 3.333 0 0.736 0.597 1.333 1.333 1.333h0.786c2.113 0 3.972 1.64 3.886 3.888-0.11 2.881-0.67 7.503-2.914 11.594-0.608 1.109-1.421 2.198-2.299 3.213l-0.066 0.076c-1.264 1.46-2.317 2.677-3.45 3.507-1.218 0.892-2.518 1.337-4.247 1.337s-3.029-0.444-4.247-1.337c-1.133-0.83-2.186-2.047-3.45-3.507l-0.066-0.076c-0.878-1.015-1.691-2.104-2.299-3.213-2.172-3.959-2.768-8.138-2.903-10.819-0.114-2.258 1.758-3.884 3.859-3.884h0.412c0.951 0 1.722-0.771 1.722-1.722zM17.001 11.999c0-0.552-0.448-1-1-1s-1 0.448-1 1v3h-3c-0.552 0-1 0.448-1 1s0.448 1 1 1h3v3c0 0.552 0.448 1 1 1s1-0.448 1-1v-3h3c0.552 0 1-0.448 1-1s-0.448-1-1-1h-3v-3z"></path>
</symbol>
<symbol id="icon-verified" viewBox="0 0 32 32">
<path d="M11.249 3.677c1.364-4.781 8.14-4.781 9.505 0 0.436 1.527 2.004 2.433 3.545 2.046 4.823-1.209 8.211 4.659 4.752 8.232-1.104 1.141-1.104 2.952 0 4.093 3.458 3.572 0.070 9.44-4.752 8.232-1.54-0.386-3.109 0.52-3.545 2.047-1.364 4.781-8.14 4.781-9.505 0-0.436-1.527-2.004-2.433-3.545-2.047-4.823 1.209-8.211-4.659-4.752-8.232 1.104-1.141 1.104-2.952 0-4.093-3.458-3.572-0.070-9.44 4.752-8.232 1.54 0.386 3.109-0.52 3.545-2.046zM22.103 12.641c0.354-0.424 0.296-1.055-0.128-1.408s-1.055-0.296-1.408 0.128l-4.618 5.542c-0.494 0.593-0.798 0.954-1.048 1.18-0.116 0.105-0.185 0.147-0.218 0.162-0.007 0.003-0.011 0.005-0.014 0.006-0.003-0.001-0.008-0.003-0.014-0.006-0.033-0.016-0.102-0.058-0.218-0.162-0.25-0.226-0.554-0.586-1.048-1.18l-1.951-2.342c-0.354-0.424-0.984-0.482-1.408-0.128s-0.482 0.984-0.128 1.408l1.994 2.393c0.438 0.526 0.833 1 1.202 1.332 0.401 0.362 0.907 0.685 1.573 0.685s1.171-0.323 1.573-0.685c0.369-0.333 0.764-0.807 1.202-1.332l4.661-5.593z"></path>
</symbol>
<symbol id="icon-award" viewBox="0 0 32 32">
<path d="M12.507 8.955c1.25 0 2.329-0.83 2.701-2.011 0.256-0.815 1.329-0.815 1.585 0 0.372 1.181 1.451 2.011 2.701 2.011 0.387 0 0.675 0.238 0.793 0.611 0.118 0.375 0.022 0.77-0.313 1.021-0.991 0.744-1.391 2.045-1.021 3.221 0.137 0.434-0.027 0.806-0.314 1.021-0.282 0.212-0.635 0.243-0.958 0-0.999-0.75-2.36-0.75-3.359 0-0.323 0.243-0.677 0.212-0.958 0-0.287-0.215-0.45-0.587-0.314-1.021 0.37-1.176-0.030-2.477-1.021-3.221-0.335-0.252-0.432-0.646-0.313-1.021 0.117-0.373 0.406-0.611 0.793-0.611z"></path>
<path d="M16 21.333c-5.523 0-10-4.477-10-10s4.477-10 10-10c5.523 0 10 4.477 10 10s-4.477 10-10 10zM18.701 6.344c-0.843-2.681-4.558-2.681-5.401 0-0.12 0.382-0.452 0.611-0.793 0.611-2.812 0-3.83 3.618-1.68 5.232 0.296 0.222 0.435 0.634 0.313 1.021-0.413 1.314 0.117 2.542 1.021 3.221 0.909 0.682 2.244 0.837 3.36 0 0.288-0.216 0.67-0.216 0.958 0 1.116 0.837 2.451 0.682 3.359 0 0.904-0.679 1.434-1.907 1.021-3.221-0.122-0.387 0.017-0.799 0.313-1.021 2.15-1.613 1.132-5.232-1.68-5.232-0.341 0-0.673-0.229-0.793-0.611z"></path>
<path d="M16 23.333c3.073 0 5.877-1.155 8-3.056v6.227c0 2.086 0 3.128-0.665 3.426s-1.479-0.381-3.108-1.738l-1.252-1.043c-1.42-1.183-2.129-1.775-2.975-1.775s-1.555 0.592-2.975 1.775l-1.252 1.043c-1.628 1.357-2.443 2.036-3.108 1.738s-0.665-1.34-0.665-3.426v-6.227c2.123 1.9 4.927 3.056 8 3.056z"></path>
</symbol>
<symbol id="icon-hamburger" viewBox="0 0 32 32">
<path stroke-linejoin="miter" stroke-linecap="round" stroke-miterlimit="4" stroke-width="1.0667" d="M26.667 24h-21.333M26.667 16h-21.333M26.667 8h-21.333"></path>
</symbol>
<symbol id="icon-search" viewBox="0 0 32 32">
<path stroke-linejoin="miter" stroke-linecap="round" stroke-miterlimit="4" stroke-width="1.3333" d="M22.569 22.719l4.631 4.48M25.706 15.253c0 5.773-4.68 10.453-10.453 10.453s-10.453-4.68-10.453-10.453c0-5.773 4.68-10.453 10.453-10.453s10.453 4.68 10.453 10.453z"></path>
</symbol>
<symbol id="icon-call" viewBox="0 0 32 32">
<path stroke-linejoin="miter" stroke-linecap="butt" stroke-miterlimit="4" stroke-width="1.3333" d="M6.348 4.883c0.094-0.094 0.141-0.141 0.183-0.179 1.020-0.937 2.588-0.937 3.609 0 0.041 0.038 0.089 0.085 0.183 0.179l1.944 1.944c1.069 1.069 1.375 2.684 0.771 4.071s-0.298 3.001 0.771 4.071l3.196 3.196c1.069 1.069 2.684 1.375 4.071 0.771s3.001-0.298 4.071 0.771l1.944 1.944c0.094 0.094 0.141 0.141 0.179 0.183 0.937 1.020 0.937 2.588 0 3.609-0.038 0.042-0.085 0.089-0.179 0.183l-1.182 1.182c-0.962 0.962-2.35 1.366-3.678 1.071-9.053-2.012-16.123-9.082-18.135-18.135-0.295-1.329 0.109-2.716 1.071-3.678l1.182-1.182z"></path>
</symbol>
<symbol id="icon-bag" viewBox="0 0 32 32">
<path stroke-linejoin="round" stroke-linecap="round" stroke-miterlimit="4" stroke-width="1.3333" d="M7.201 12.833l6.441-7.027c1.268-1.384 3.45-1.384 4.718 0l6.441 7.027M28.264 14.562l-3.643 11.733c-0.173 0.558-0.689 0.938-1.273 0.938h-14.606c-0.581 0-1.095-0.376-1.271-0.93l-3.719-11.733c-0.272-0.86 0.369-1.736 1.271-1.736h21.968c0.899 0 1.54 0.871 1.273 1.729z"></path>
</symbol>
</defs>
</svg>
