<svg width="24" height="25" viewBox="0 0 24 25" fill="none" xmlns="http://www.w3.org/2000/svg">
<path d="M12.75 4.25195C12.75 3.83774 12.4142 3.50195 12 3.50195C11.5858 3.50195 11.25 3.83774 11.25 4.25195L11.25 11.502H4C3.58579 11.502 3.25 11.8377 3.25 12.252C3.25 12.6662 3.58579 13.002 4 13.002H11.25V20.252C11.25 20.6662 11.5858 21.002 12 21.002C12.4142 21.002 12.75 20.6662 12.75 20.252V13.002H20C20.4142 13.002 20.75 12.6662 20.75 12.252C20.75 11.8377 20.4142 11.502 20 11.502H12.75L12.75 4.25195Z" fill="#2D264B"/>
</svg>
