<svg width="16" height="15" viewBox="0 0 16 15" fill="none" xmlns="http://www.w3.org/2000/svg">
<path d="M8.67187 2.5C8.67187 2.24112 8.46201 2.03125 8.20312 2.03125C7.94424 2.03125 7.73437 2.24112 7.73437 2.5L7.73438 7.03125H3.20312C2.94424 7.03125 2.73438 7.24112 2.73438 7.5C2.73438 7.75888 2.94424 7.96875 3.20312 7.96875H7.73438V12.5C7.73438 12.7589 7.94424 12.9688 8.20312 12.9688C8.46201 12.9688 8.67188 12.7589 8.67188 12.5V7.96875H13.2031C13.462 7.96875 13.6719 7.75888 13.6719 7.5C13.6719 7.24112 13.462 7.03125 13.2031 7.03125H8.67188L8.67187 2.5Z" fill="#2D264B"/>
</svg>
